<svg xmlns="http://www.w3.org/2000/svg" viewBox="0 0 900 560" role="img" aria-label="Średniowieczne schematy ulepszania ściany z drewna do kamienia i metalu"><defs><linearGradient id="bg" x2="1" y2="1"><stop stop-color="#b9ab83"/><stop offset="1" stop-color="#d7c29a"/></linearGradient><pattern id="grain" width="24" height="19" patternUnits="userSpaceOnUse"><path d="M0 9h20M6 18h12" stroke="#443d2d" opacity=".2"/></pattern></defs><rect width="900" height="560" fill="url(#bg)"/><rect x="28" y="28" width="844" height="504" fill="none" stroke="#675237" stroke-width="5"/>
<g stroke="#413b31" stroke-width="6"><rect x="106" y="220" width="177" height="184" fill="#85613f"/><rect x="363" y="220" width="177" height="184" fill="#87817a"/><rect x="620" y="220" width="177" height="184" fill="#565c62"/></g><g stroke="#312a21" stroke-width="6"><path d="M106 260h177M106 320h177M150 220v184M236 220v184"/><path d="M363 273h177M363 330h177M407 220v110M496 273v131"/><path d="M620 265h177M620 310h177M620 360h177M673 220v184M745 220v184"/></g><g fill="#d6bd8c"><circle cx="119" cy="234" r="6"/><circle cx="265" cy="389" r="6"/><circle cx="378" cy="235" r="6"/><circle cx="526" cy="384" r="6"/></g><g fill="#40362a" font-family="Georgia" font-weight="bold" text-anchor="middle"><text x="194" y="173" font-size="37">DREWNO</text><text x="450" y="173" font-size="37">KAMIEŃ</text><text x="711" y="173" font-size="37">ŻELAZO</text><text x="197" y="444" font-size="22">I · POCZĄTEK</text><text x="453" y="444" font-size="22">II · WZMOCNIENIE</text><text x="706" y="444" font-size="22">III · OBRONA</text><text x="324" y="327" font-size="56">➜</text><text x="580" y="327" font-size="56">➜</text></g><rect x="106" y="220" width="177" height="184" fill="url(#grain)" opacity=".6"/></svg>
