<svg xmlns="http://www.w3.org/2000/svg" viewBox="0 0 900 560" role="img" aria-label="Pergaminowa mapa wyspy z zachodnią groblą i szlakiem do młyna"><defs><radialGradient id="paper"><stop stop-color="#e4d5a9"/><stop offset="1" stop-color="#9f865d"/></radialGradient><pattern id="w" width="48" height="40" patternUnits="userSpaceOnUse"><path d="M0 20q12-12 24 0t24 0" fill="none" stroke="#708c85" stroke-width="3" opacity=".25"/></pattern></defs><rect width="900" height="560" fill="url(#paper)"/><rect x="20" y="20" width="860" height="520" fill="none" stroke="#715e42" stroke-width="5"/><path d="M0 0h900v560H0Z" fill="url(#w)"/>
<path d="M430 72q150-39 254 57 107 104 47 245-51 111-180 128-117 18-218-80-104-89-78-203Q287 105 430 72Z" fill="#577985" opacity=".65"/>
<path d="M430 142q115-36 190 41 80 92 33 175-42 85-145 90-107 6-169-81-60-86-7-160 43-60 98-65Z" fill="#85956c" stroke="#526e50" stroke-width="8"/>
<path d="M355 206l70-43 110-8 87 65 14 114-93 87-129-7-94-96Z" fill="#bca97b" stroke="#4d5b40" stroke-width="5"/>
<path d="M100 276Q205 267 309 283L378 291" fill="none" stroke="#73664c" stroke-width="24" stroke-linecap="round"/><path d="M100 276Q205 267 309 283L378 291" fill="none" stroke="#e4c28a" stroke-width="13" stroke-dasharray="12 12"/><path d="M83 276q64-36 130-36 64-1 133 41 70 41 132 1" fill="none" stroke="#aa5538" stroke-width="7" stroke-dasharray="17 13"/>
<path d="M468 232l-35-18 34-81 35 82-34 17-85 48 83-13 50 90-17-109 72-64-89 32Z" fill="#433729" stroke="#e5cb96" stroke-width="6"/><circle cx="468" cy="232" r="18" fill="#6b4934" stroke="#d8bf89" stroke-width="4"/><g fill="#574b32" stroke="#d1b889" stroke-width="3"><path d="M553 343l32-52 37 52v47h-69Z"/><path d="M418 357l23-32 31 32v31h-54Z"/></g><g font-family="Georgia" font-size="28" fill="#362b20" font-weight="bold"><text x="62" y="240">SZLAK</text><text x="104" y="338">GROBLA →</text><text x="490" y="118">MŁYN</text><text x="637" y="460">WODA</text><text x="89" y="92" font-size="37">N</text></g><path d="M90 103l-18 80 18-15 18 15Z" fill="#634b35"/><rect x="32" y="32" width="836" height="496" fill="none" stroke="#67543a" stroke-width="2" stroke-dasharray="5 11"/>
</svg>
